<svg viewBox="0 0 142 130">
    
    <g id="dress" stroke="none" stroke-width="1" fill="none" fill-rule="evenodd" sketch:type="MSPage">
        <path d="M71,0 C41.147946,-2.99999999e-06 15,7.59375 15,7.59375 L22.636364,70.875 C22.636364,70.875 42.136186,80.999997 71,81 C99.863814,81.000005 119.363636,70.875 119.363636,70.875 L127,7.59375 C127,7.59375 100.852054,2.99999999e-06 71,0 L71,0 Z M71,130 C13.235735,130.000002 3.99999999e-06,119.166576 0,109.099945 C-5.99999998e-06,99.033315 22.821429,94 22.821429,94 C22.821429,94 42.246634,104.066627 71,104.06663 C99.753366,104.066635 119.178571,94 119.178571,94 C119.178571,94 141.999998,99.033315 142,109.099945 C142,119.166576 128.764265,129.999998 71,130 L71,130 Z M71,84.89698 C42.582648,84.896979 23,76 23,76 L24.263158,91.251965 C24.263158,91.251965 51.376645,100.000001 71,100 C90.623355,100 117.736842,91.251965 117.736842,91.251965 L119,76 C119,76 99.417352,84.89698 71,84.89698 L71,84.89698 Z" id="top-hat" fill="#000000" sketch:type="MSShapeGroup"/>
    </g>
</svg>